<mxfile host="app.diagrams.net" agent="Mozilla/5.0 (Windows NT 10.0; Win64; x64) AppleWebKit/537.36 (KHTML, like Gecko) Chrome/134.0.0.0 Safari/537.36" version="26.2.5">
  <diagram name="Page-1" id="Pi5_btWHU2zAp5QVz_qA">
    <mxGraphModel grid="0" page="0" gridSize="10" guides="1" tooltips="1" connect="1" arrows="1" fold="1" pageScale="1" pageWidth="850" pageHeight="1100" math="0" shadow="0">
      <root>
        <mxCell id="0" />
        <mxCell id="1" parent="0" />
        <mxCell id="8dY6oqN4nQ8TAdsFvHpM-5" style="edgeStyle=orthogonalEdgeStyle;rounded=0;orthogonalLoop=1;jettySize=auto;html=1;exitX=1;exitY=0.5;exitDx=0;exitDy=0;entryX=0;entryY=0.5;entryDx=0;entryDy=0;" edge="1" parent="1" source="8dY6oqN4nQ8TAdsFvHpM-1" target="8dY6oqN4nQ8TAdsFvHpM-2">
          <mxGeometry relative="1" as="geometry" />
        </mxCell>
        <mxCell id="8dY6oqN4nQ8TAdsFvHpM-1" value="Sensor Module : Input Data&amp;nbsp;&lt;div&gt;Source&lt;/div&gt;" style="shape=parallelogram;perimeter=parallelogramPerimeter;whiteSpace=wrap;html=1;fixedSize=1;" vertex="1" parent="1">
          <mxGeometry x="-167" y="47" width="202" height="94" as="geometry" />
        </mxCell>
        <mxCell id="8dY6oqN4nQ8TAdsFvHpM-6" style="edgeStyle=orthogonalEdgeStyle;rounded=0;orthogonalLoop=1;jettySize=auto;html=1;exitX=1;exitY=0.5;exitDx=0;exitDy=0;entryX=0;entryY=0.5;entryDx=0;entryDy=0;" edge="1" parent="1" source="8dY6oqN4nQ8TAdsFvHpM-2" target="8dY6oqN4nQ8TAdsFvHpM-3">
          <mxGeometry relative="1" as="geometry" />
        </mxCell>
        <mxCell id="8dY6oqN4nQ8TAdsFvHpM-2" value="FPGA Module : Process&lt;br&gt;Data" style="rounded=0;whiteSpace=wrap;html=1;" vertex="1" parent="1">
          <mxGeometry x="74.5" y="46" width="179" height="96" as="geometry" />
        </mxCell>
        <mxCell id="8dY6oqN4nQ8TAdsFvHpM-3" value="UART TRANSMITTER : Sends Data" style="rounded=1;whiteSpace=wrap;html=1;" vertex="1" parent="1">
          <mxGeometry x="330" y="47" width="169" height="95" as="geometry" />
        </mxCell>
        <mxCell id="8dY6oqN4nQ8TAdsFvHpM-4" value="Receiving Device : External&lt;div&gt;Device&lt;/div&gt;" style="ellipse;shape=cloud;whiteSpace=wrap;html=1;" vertex="1" parent="1">
          <mxGeometry x="554" y="29" width="202" height="135" as="geometry" />
        </mxCell>
        <mxCell id="8dY6oqN4nQ8TAdsFvHpM-7" style="edgeStyle=orthogonalEdgeStyle;rounded=0;orthogonalLoop=1;jettySize=auto;html=1;exitX=1;exitY=0.5;exitDx=0;exitDy=0;entryX=0.16;entryY=0.55;entryDx=0;entryDy=0;entryPerimeter=0;" edge="1" parent="1" source="8dY6oqN4nQ8TAdsFvHpM-3" target="8dY6oqN4nQ8TAdsFvHpM-4">
          <mxGeometry relative="1" as="geometry">
            <Array as="points">
              <mxPoint x="499" y="103" />
              <mxPoint x="561" y="103" />
              <mxPoint x="561" y="104" />
            </Array>
          </mxGeometry>
        </mxCell>
      </root>
    </mxGraphModel>
  </diagram>
</mxfile>
